Coordinates
version=1
nRows=4
nColumns=63
inDegrees=yes

Units are S.I. units (second, meters, Newtons, ...)
If the header above contains a line with 'inDegrees', this indicates whether rotational values are in degrees (yes) or radians (no).

endheader
time	pelvis_tilt	pelvis_list	pelvis_rotation	pelvis_tx	pelvis_ty	pelvis_tz	hip_flexion_r	hip_adduction_r	hip_rotation_r	knee_angle_r	knee_angle_r_beta	ankle_angle_r	subtalar_angle_r	mtp_angle_r	hip_flexion_l	hip_adduction_l	hip_rotation_l	knee_angle_l	knee_angle_l_beta	ankle_angle_l	subtalar_angle_l	mtp_angle_l	L5_S1_Flex_Ext	L5_S1_Lat_Bending	L5_S1_axial_rotation	L4_L5_Flex_Ext	L4_L5_Lat_Bending	L4_L5_axial_rotation	L3_L4_Flex_Ext	L3_L4_Lat_Bending	L3_L4_axial_rotation	L2_L3_Flex_Ext	L2_L3_Lat_Bending	L2_L3_axial_rotation	L1_L2_Flex_Ext	L1_L2_Lat_Bending	L1_L2_axial_rotation	L1_T12_Flex_Ext	L1_T12_Lat_Bending	L1_T12_axial_rotation	Abs_r3	Abs_r2	Abs_r1	Abs_t1	Abs_t2	neck_flexion	neck_bending	neck_rotation	arm_flex_r	arm_add_r	arm_rot_r	elbow_flex_r	pro_sup_r	wrist_flex_r	wrist_dev_r	arm_flex_l	arm_add_l	arm_rot_l	elbow_flex_l	pro_sup_l	wrist_flex_l	wrist_dev_l
      2.50000000	      0.69489231	    -16.47633671	     87.58574964	      0.32652001	      0.92831562	      0.52152005	      0.38672294	      2.77586298	     18.72671847	      0.87129987	      0.01520705	     29.28246585	    -13.83524542	      0.00000000	      3.18763174	     -3.05458366	      7.57894473	      6.45186931	      0.11260636	     34.44598642	    -12.48490722	      0.00000000	     -0.07425499	      0.20810825	      2.53894838	     -0.13789895	      0.27678397	      2.69763265	     -0.12199353	      0.50599439	      2.69763265	     -0.08486603	      0.50599439	      2.22157983	     -0.06895319	      0.42437433	      2.06289555	     -0.04242930	      0.32235967	      1.90421128	     -0.53039599	      2.35416209	     14.12086918	      0.00000000	      0.00000000	     27.18257278	    -11.11894854	    -14.04832390	      7.40466013	     -5.06845924	     55.08386183	     32.31955379	      9.82362361	     -5.42518899	      4.56174231	     17.46670398	      1.16407482	     76.12408995	     29.03308677	     58.34398894	     -8.84619968	     -8.39679805
      2.51666667	      0.51397924	    -17.48553162	     87.74163222	      0.32549672	      0.92778759	      0.52538952	      1.84570571	      2.68404539	     18.48368586	      1.32867234	      0.02318971	     29.07561794	    -14.43307514	      0.00000000	      5.92131660	     -2.78724379	      6.28901108	      9.32501929	      0.16275229	     35.65015957	    -11.20743883	      0.00000000	     -0.04751577	      0.16601364	      2.54538431	     -0.08824153	      0.22079814	      2.70447083	     -0.07806365	      0.40364557	      2.70447083	     -0.05430577	      0.40364557	      2.22721127	     -0.04412314	      0.33853502	      2.06812475	     -0.02715051	      0.25715513	      1.90903823	     -0.33940036	      1.87797953	     14.15666393	      0.00000000	      0.00000000	     27.53420433	    -10.80140312	    -14.44621663	      6.45997918	     -4.08964357	     48.10269065	     33.66484813	      3.84659727	     -7.18770170	      4.77557498	     18.64110530	      1.13263745	     79.77329910	     28.87914991	     58.44220780	     -7.70076405	     -7.15197996
      2.53333333	      0.64094726	    -18.48130430	     87.36086005	      0.32489826	      0.92727426	      0.52953412	      3.53738032	      2.96645316	     18.19392359	      2.20573185	      0.03849728	     29.14743562	    -14.25647610	      0.00000000	      8.54997656	     -3.19924264	      2.13231446	     12.18149156	      0.21260714	     37.50525504	     -6.88022952	      0.00000000	     -0.02062510	      0.17393864	      2.63739038	     -0.03830288	      0.23133840	      2.80222728	     -0.03388498	      0.42291442	      2.80222728	     -0.02357243	      0.42291442	      2.30771659	     -0.01915247	      0.35469568	      2.14287969	     -0.01178518	      0.26943096	      1.97804279	     -0.14732305	      1.96762874	     14.66837410	      0.00000000	      0.00000000	     27.81503237	    -10.70252359	    -14.50304482	      5.87292531	     -3.27311435	     43.38291007	     33.99047198	      2.40734626	     -7.28927643	      4.48423915	     20.24462450	      1.35217411	     85.61474782	     28.21959444	     54.04907062	     -7.38918237	     -7.20371623
      2.55000000	      1.01380736	    -19.42165583	     86.88934557	      0.32383722	      0.92675846	      0.53339709	      5.26602019	      3.50052052	     18.09751935	      3.27872888	      0.05722461	     29.31922889	    -14.08710656	      0.00000000	     10.74366202	     -3.59793994	      1.50110000	     14.40896953	      0.25148396	     37.88420542	     -7.66394652	      0.00000000	      0.00934842	      0.22852957	      2.68524372	      0.01736094	      0.30394432	      2.85307145	      0.01535851	      0.55564679	      2.85307145	      0.01068431	      0.55564679	      2.34958825	      0.00868094	      0.46601749	      2.18176052	      0.00534169	      0.35399230	      2.01393279	      0.06677480	      2.58517217	     14.93451999	      0.00000000	      0.00000000	     28.00478384	    -10.75889602	    -14.02467620	      5.90498978	     -2.99913342	     42.44379813	     33.73800928	      2.07749203	     -6.06892325	      3.52499099	     20.68877646	      1.46777595	     86.51700983	     27.77642087	     54.22883472	     -7.25627457	     -6.75623950
